<svg width="249.20000610351565" height="66.70457871580125" viewBox="0 0 370 99.03970112502445" class="looka-1j8o68f"><defs id="SvgjsDefs1275"></defs><g id="SvgjsG1276" featurekey="PG4fjM-0" transform="matrix(32.01024742112572,0,0,32.01024742112572,-30.025614736895445,-30.50576799030207)" fill="#111111"><g xmlns="http://www.w3.org/2000/svg"><g><polygon fill="#111111" points="2.499,1.705 4.062,2.605 4.062,1.854 2.498,0.953 0.938,1.855 0.938,2.607   "></polygon></g><g><polygon fill="#111111" points="3.812,3.51 4.062,3.363 4.062,2.902 2.498,2 0.938,2.902 0.938,3.365 1.188,3.51 2.498,2.752       "></polygon></g><g><polygon fill="#111111" points="2.499,3.818 2.896,4.047 3.548,3.672 2.498,3.066 1.452,3.672 2.104,4.047   "></polygon></g></g></g><g id="SvgjsG1277" featurekey="jxYttZ-0" transform="matrix(4.258944003360574,0,0,4.258944003360574,114.0374759583079,-4.29472001680287)" fill="#111111"><path d="M3.62 18.16 l7.56 0 l0 1.84 l-9.78 0 l0 -15 l2.22 0 l0 13.16 z M22.5 15.08 l0 0.74 l-7.78 0 c0 1.82 1.74 2.7 3.02 2.7 c0.94 0 1.98 -0.5 2.54 -1.3 l1.42 1.28 c-0.66 0.9 -1.74 1.7 -3.96 1.7 c-3.2 0 -5.16 -2.18 -5.16 -5.12 s1.9 -5.14 4.96 -5.14 s4.46 1.7 4.88 4.18 c0.06 0.32 0.08 0.64 0.08 0.96 z M14.76 14.120000000000001 l5.58 0 c0 -1.6 -1.28 -2.48 -2.8 -2.48 s-2.78 1.02 -2.78 2.48 z M33.64 14.3 l0 5.7 l-2.06 0 l0 -5.5 c0 -2 -0.62 -2.88 -2.32 -2.88 c-1.92 0 -2.7 1.34 -2.7 3.08 l0 5.3 l-2.06 0 l0 -9.88 l2.06 0 l0 1.6 c0.28 -0.88 1.52 -1.68 2.7 -1.76 c2.68 -0.2 4.38 1.1 4.38 4.34 z M35.98 15.08 c0 -2.94 2.1 -5.14 4.94 -5.14 c0.98 0 2.18 0.42 2.84 0.96 l0 -5.9 l2.08 0 l0 15 l-2.08 0 l0 -0.74 c-0.78 0.58 -1.86 0.94 -2.84 0.94 c-2.84 0 -4.94 -2.18 -4.94 -5.12 z M38.06 15.08 c0 2 1.38 3.44 3.06 3.44 c1.12 0 2.12 -0.52 2.64 -1.58 c0.28 -0.54 0.44 -1.18 0.44 -1.86 s-0.16 -1.32 -0.44 -1.88 c-0.52 -1.06 -1.52 -1.56 -2.64 -1.56 c-1.68 0 -3.06 1.42 -3.06 3.44 z M51.459999999999994 5 l0 15 l-2.22 0 l0 -15 l2.22 0 z M58.66 18.36 c0.64 0.26 1.14 0.08 1.44 -0.06 l0 1.6 c-0.26 0.16 -0.64 0.3 -1.18 0.3 c-1.18 0 -2.22 -0.38 -2.86 -1.42 c-0.6 -1 -0.6 -1.54 -0.6 -3.1 l0 -3.88 l-1.2 0 l0 -1.68 l1.2 0 l0 -3.12 l2.06 0 l0 3.12 l2.58 0 l0 1.68 l-2.58 0 l0 3.88 c0 1.64 0.16 2.24 1.14 2.68 z"></path></g></svg>